<svg data-v-2cb57da0="" version="1.0" xmlns="http://www.w3.org/2000/svg" xmlns:xlink="http://www.w3.org/1999/xlink" width="100%" height="100%" viewBox="0 0 340.000000 150.000000" preserveAspectRatio="xMidYMid meet" color-interpolation-filters="sRGB" style="margin: auto;">
      <g data-v-2cb57da0="" fill="#bb2e2e" class="icon-text-wrapper icon-svg-group iconsvg" transform="translate(22.78729248046875,47.65264892578125)">
        <g transform="translate(0,0)">
            <g data-gra="path-name" fill-rule="" class="tp-name iconsvg-namesvg" transform="translate(0,0)">
                <g transform="scale(1.7400000000000007)">
                    <g>
                        <path d="M15.23-25.67L21.53 5.87 15.59 5.87 14.48 0.29 7.24 0.29 6.09 5.87 0.14 5.87 6.48-25.67 15.23-25.67ZM10.84-17.82L8.35-5.26 13.36-5.26 10.84-17.82ZM38.42-25.67L41.59-22.51 41.59 2.7 38.42 5.87 22.18 5.87 22.18-25.67 38.42-25.67ZM35.65-20.13L28.12-20.13 28.12 0.32 35.65 0.32 35.65-20.13ZM61.5-25.24L61.5-19.73 49.26-19.73 49.26-12.39 58.41-12.39 61.5-9.29 61.5 2.74 58.41 5.83 43.39 5.83 43.39 0.4 55.63 0.4 55.63-6.95 46.52-6.95 43.39-10.08 43.39-22.07 46.52-25.24 61.5-25.24ZM78.72-25.67L81.89-22.51 81.89-12.68 79.11-9.9 81.89-7.13 81.89 2.7 78.72 5.87 63.27 5.87 63.27-25.67 78.72-25.67ZM75.94-7.13L69.21-7.13 69.21 0.32 75.94 0.32 75.94-7.13ZM75.94-20.13L69.21-20.13 69.21-12.68 75.94-12.68 75.94-20.13ZM107.85-25.67L111.02-22.51 111.02-12.68 108.24-9.9 111.02-7.13 111.02 2.7 107.85 5.87 92.4 5.87 92.4-25.67 107.85-25.67ZM105.08-7.13L98.34-7.13 98.34 0.32 105.08 0.32 105.08-7.13ZM105.08-20.13L98.34-20.13 98.34-12.68 105.08-12.68 105.08-20.13ZM112.35-14.22L115.52-17.39 127-17.39 130.17-14.22 130.17 2.34 127 5.51 115.52 5.51 112.35 2.34 112.35-14.22ZM124.23-11.85L118.29-11.85 118.29-0.04 124.23-0.04 124.23-11.85ZM131.79-14.22L134.96-17.39 146.45-17.39 149.62-14.22 149.62 2.34 146.45 5.51 134.96 5.51 131.79 2.34 131.79-14.22ZM143.68-11.85L137.74-11.85 137.74-0.04 143.68-0.04 143.68-11.85ZM157.18-25.67L157.18-9.07 162.37-17.1 168.78-17.1 161.79-6.3 169.35 5.87 162.91 5.87 157.18-3.31 157.18 5.87 151.24 5.87 151.24-25.67 157.18-25.67Z"
                        transform="translate(-0.14000000059604645, 25.670000076293945)"></path>
                    </g>
                    <!---->
                    <!---->
                    <!---->
                    <!---->
                    <!---->
                    <!---->
                    <!---->
                </g>
            </g>           
        </g>
    </g>
    <defs v-gra="od"></defs>
</svg>